# xmcd
#
# Track frame offsets: 
#        150
#        21669
#        39485
#        60100
#        77179
#        91347
#        111420
#        131874
#        151177
#        171397
#        196278
#
# Disc length: 2950 seconds
#
# Revision: 0
# Processed by: cddbd v1.5.2PL0 Copyright (c) Steve Scherf et al.
# Submitted via: ExactAudioCopy v0.99pb5
#
DISCID=910b840b
DTITLE=Ruger Hauer - Se Syvenee Syksyll‰
DYEAR=2010
DGENRE=Hip-Hop
TTITLE0=Pelle …poque
TTITLE1=Sig Sauerkraute
TTITLE2=Dallas
TTITLE3=Pett‰v‰ annostus
TTITLE4=Jokaiselle jotakin
TTITLE5=T‰‰ll‰
TTITLE6=Huomioita k‰velyst‰ veden p‰‰ll‰
TTITLE7=T‰‰ll‰ viel‰
TTITLE8=Vampyyri
TTITLE9=Marraskuu
TTITLE10=Riippusilta
EXTD=
EXTT0=
EXTT1=
EXTT2=
EXTT3=
EXTT4=
EXTT5=
EXTT6=
EXTT7=
EXTT8=
EXTT9=
EXTT10=
PLAYORDER=
